<mxfile host="app.diagrams.net" modified="2020-03-25T04:40:37.599Z" agent="Mozilla/5.0 (Macintosh; Intel Mac OS X 10_15_4) AppleWebKit/537.36 (KHTML, like Gecko) Chrome/80.0.3987.149 Safari/537.36" etag="KaC8c23lFr2RDcYbpX6W" version="12.9.2" type="github">
  <diagram id="q-bwgxVIxM5L8j6qXdZT" name="Page-1">
    <mxGraphModel dx="2066" dy="1163" grid="1" gridSize="10" guides="1" tooltips="1" connect="1" arrows="1" fold="1" page="1" pageScale="1" pageWidth="1600" pageHeight="900" math="0" shadow="0">
      <root>
        <mxCell id="0" />
        <mxCell id="1" parent="0" />
        <mxCell id="92n_hiXEbpLkst9ryyDM-1" value="" style="whiteSpace=wrap;html=1;aspect=fixed;" vertex="1" parent="1">
          <mxGeometry x="160" y="120" width="80" height="80" as="geometry" />
        </mxCell>
        <mxCell id="92n_hiXEbpLkst9ryyDM-2" value="AddRenderContainer" style="text;html=1;align=center;verticalAlign=middle;resizable=0;points=[];autosize=1;" vertex="1" parent="1">
          <mxGeometry x="135" y="94" width="130" height="20" as="geometry" />
        </mxCell>
        <mxCell id="92n_hiXEbpLkst9ryyDM-3" value="" style="whiteSpace=wrap;html=1;aspect=fixed;" vertex="1" parent="1">
          <mxGeometry x="360" y="120" width="80" height="80" as="geometry" />
        </mxCell>
        <mxCell id="92n_hiXEbpLkst9ryyDM-4" value="DetailContainer" style="text;html=1;align=center;verticalAlign=middle;resizable=0;points=[];autosize=1;" vertex="1" parent="1">
          <mxGeometry x="350" y="94" width="100" height="20" as="geometry" />
        </mxCell>
        <mxCell id="92n_hiXEbpLkst9ryyDM-5" value="" style="whiteSpace=wrap;html=1;aspect=fixed;" vertex="1" parent="1">
          <mxGeometry x="560" y="120" width="80" height="80" as="geometry" />
        </mxCell>
        <mxCell id="92n_hiXEbpLkst9ryyDM-6" value="DetailEditContainer" style="text;html=1;align=center;verticalAlign=middle;resizable=0;points=[];autosize=1;" vertex="1" parent="1">
          <mxGeometry x="540" y="94" width="120" height="20" as="geometry" />
        </mxCell>
        <mxCell id="92n_hiXEbpLkst9ryyDM-9" value="" style="rounded=0;whiteSpace=wrap;html=1;fillColor=none;" vertex="1" parent="1">
          <mxGeometry x="80" y="80" width="640" height="160" as="geometry" />
        </mxCell>
        <mxCell id="92n_hiXEbpLkst9ryyDM-10" value="RenderContainer" style="text;html=1;align=center;verticalAlign=middle;resizable=0;points=[];autosize=1;" vertex="1" parent="1">
          <mxGeometry x="345" y="40" width="110" height="20" as="geometry" />
        </mxCell>
        <mxCell id="92n_hiXEbpLkst9ryyDM-11" value="" style="ellipse;whiteSpace=wrap;html=1;" vertex="1" parent="1">
          <mxGeometry x="880" y="80" width="360" height="250" as="geometry" />
        </mxCell>
        <mxCell id="92n_hiXEbpLkst9ryyDM-12" value="业务页面" style="text;html=1;align=center;verticalAlign=middle;resizable=0;points=[];autosize=1;" vertex="1" parent="1">
          <mxGeometry x="1030" y="40" width="60" height="20" as="geometry" />
        </mxCell>
        <mxCell id="92n_hiXEbpLkst9ryyDM-13" value="渲染容器" style="whiteSpace=wrap;html=1;aspect=fixed;" vertex="1" parent="1">
          <mxGeometry x="1010" y="180" width="100" height="100" as="geometry" />
        </mxCell>
        <mxCell id="92n_hiXEbpLkst9ryyDM-14" value="蒙太奇&lt;br&gt;模型模版" style="text;html=1;strokeColor=none;fillColor=none;align=center;verticalAlign=middle;whiteSpace=wrap;rounded=0;" vertex="1" parent="1">
          <mxGeometry x="940" y="140" width="60" height="20" as="geometry" />
        </mxCell>
        <mxCell id="92n_hiXEbpLkst9ryyDM-16" value="" style="endArrow=classic;html=1;rounded=0;exitX=0.5;exitY=1;exitDx=0;exitDy=0;" edge="1" parent="1" source="92n_hiXEbpLkst9ryyDM-14">
          <mxGeometry width="50" height="50" relative="1" as="geometry">
            <mxPoint x="968" y="170" as="sourcePoint" />
            <mxPoint x="1010" y="220" as="targetPoint" />
            <Array as="points">
              <mxPoint x="968" y="220" />
            </Array>
          </mxGeometry>
        </mxCell>
        <mxCell id="92n_hiXEbpLkst9ryyDM-17" value="schema&lt;br&gt;props" style="text;html=1;strokeColor=none;fillColor=none;align=center;verticalAlign=middle;whiteSpace=wrap;rounded=0;" vertex="1" parent="1">
          <mxGeometry x="920" y="190" width="40" height="20" as="geometry" />
        </mxCell>
      </root>
    </mxGraphModel>
  </diagram>
</mxfile>
